<?xml version="1.0" encoding="UTF-8"?>
<svg xmlns="http://www.w3.org/2000/svg" xmlns:xlink="http://www.w3.org/1999/xlink" width="767pt" height="432pt" viewBox="0 0 767 432">
<defs>
<g>
<g id="glyph-0-0">
<path d="M 6.078125 -11.765625 L 1.375 -11.765625 L 1.375 3.921875 L 6.078125 3.921875 Z M 5.484375 -11.1875 L 5.484375 3.34375 L 2 3.34375 L 2 -11.1875 Z M 3.625 -5.046875 C 3.1875 -5.046875 2.59375 -4.921875 2.59375 -4.609375 C 2.59375 -4.46875 2.6875 -4.359375 2.859375 -4.359375 C 2.90625 -4.359375 2.953125 -4.375 3 -4.390625 C 3.1875 -4.484375 3.34375 -4.515625 3.578125 -4.515625 C 4.140625 -4.515625 4.265625 -4.171875 4.265625 -3.734375 C 4.265625 -3.140625 4.0625 -2.921875 3.25 -2.875 L 3.25 -1.9375 C 3.25 -1.765625 3.390625 -1.671875 3.53125 -1.671875 C 3.65625 -1.671875 3.8125 -1.765625 3.8125 -1.9375 L 3.8125 -2.4375 C 4.5625 -2.546875 4.875 -2.984375 4.875 -3.765625 C 4.875 -4.4375 4.59375 -5.046875 3.625 -5.046875 Z M 3.53125 -1.34375 C 3.3125 -1.34375 3.140625 -1.171875 3.140625 -0.953125 C 3.140625 -0.71875 3.3125 -0.53125 3.53125 -0.53125 C 3.75 -0.53125 3.921875 -0.71875 3.921875 -0.953125 C 3.921875 -1.171875 3.75 -1.34375 3.53125 -1.34375 Z M 3.53125 -1.34375 "/>
</g>
<g id="glyph-0-1">
<path d="M 3.125 -7.609375 C 1.4375 -7.609375 0.609375 -6.234375 0.609375 -3.734375 C 0.609375 -1.25 1.4375 0.140625 3.125 0.140625 C 4.8125 0.140625 5.640625 -1.25 5.640625 -3.734375 C 5.640625 -6.21875 4.8125 -7.609375 3.125 -7.609375 Z M 3.125 -6.78125 C 4.0625 -6.78125 4.5625 -5.9375 4.5625 -3.734375 C 4.5625 -1.53125 4.0625 -0.6875 3.125 -0.6875 C 2.1875 -0.6875 1.6875 -1.53125 1.6875 -3.734375 C 1.6875 -5.9375 2.1875 -6.78125 3.125 -6.78125 Z M 3.125 -6.78125 "/>
</g>
<g id="glyph-0-2">
<path d="M 4.84375 -7.5 L 0.796875 -7.5 L 0.796875 -3.71875 L 1.609375 -3.71875 C 1.953125 -3.890625 2.265625 -3.984375 2.671875 -3.984375 C 3.4375 -3.984375 4.03125 -3.578125 4.03125 -2.421875 C 4.03125 -1.328125 3.4375 -0.703125 2.5 -0.703125 C 1.84375 -0.703125 1.359375 -0.9375 0.921875 -1.421875 L 0.296875 -0.8125 C 0.875 -0.21875 1.5625 0.140625 2.515625 0.140625 C 4.0625 0.140625 5.109375 -0.90625 5.109375 -2.390625 C 5.109375 -3.890625 4.25 -4.765625 2.984375 -4.765625 C 2.578125 -4.765625 2.171875 -4.6875 1.78125 -4.484375 L 1.78125 -6.6875 L 4.703125 -6.6875 Z M 4.84375 -7.5 "/>
</g>
<g id="glyph-0-3">
<path d="M 3.625 -7.5 L 2.71875 -7.5 L 0.390625 -6.0625 L 0.84375 -5.328125 L 2.59375 -6.390625 L 2.59375 0 L 3.625 0 Z M 3.625 -7.5 "/>
</g>
<g id="glyph-0-4">
<path d="M 4.640625 -7.5 L 0.28125 -7.5 L 0.28125 -6.65625 L 3.59375 -6.65625 L 0.890625 -0.203125 L 1.84375 0.109375 L 4.640625 -6.71875 Z M 4.640625 -7.5 "/>
</g>
<g id="glyph-0-5">
<path d="M 2.90625 -7.609375 C 1.609375 -7.609375 0.5 -6.703125 0.5 -5.125 C 0.5 -3.640625 1.40625 -2.71875 2.578125 -2.71875 C 3.34375 -2.71875 3.9375 -3.109375 4.25 -3.625 C 4.171875 -1.921875 2.984375 -1.0625 1.09375 -0.53125 L 1.328125 0.25 C 4.09375 -0.546875 5.328125 -1.59375 5.328125 -4.6875 C 5.328125 -6.453125 4.515625 -7.609375 2.90625 -7.609375 Z M 2.796875 -3.53125 C 2.0625 -3.53125 1.546875 -4.03125 1.546875 -5.109375 C 1.546875 -6.1875 2.046875 -6.78125 2.921875 -6.78125 C 3.859375 -6.78125 4.3125 -6.15625 4.28125 -4.453125 C 3.90625 -3.890625 3.421875 -3.53125 2.796875 -3.53125 Z M 2.796875 -3.53125 "/>
</g>
<g id="glyph-1-0">
<path d="M 7.609375 -14.703125 L 1.71875 -14.703125 L 1.71875 4.90625 L 7.609375 4.90625 Z M 6.84375 -13.96875 L 6.84375 4.171875 L 2.484375 4.171875 L 2.484375 -13.96875 Z M 4.53125 -6.3125 C 3.984375 -6.3125 3.234375 -6.140625 3.234375 -5.765625 C 3.234375 -5.59375 3.359375 -5.453125 3.5625 -5.453125 C 3.625 -5.453125 3.6875 -5.453125 3.75 -5.484375 C 3.984375 -5.59375 4.1875 -5.640625 4.484375 -5.640625 C 5.1875 -5.640625 5.328125 -5.21875 5.328125 -4.671875 C 5.328125 -3.9375 5.0625 -3.65625 4.0625 -3.59375 L 4.0625 -2.421875 C 4.0625 -2.21875 4.234375 -2.09375 4.40625 -2.09375 C 4.578125 -2.09375 4.765625 -2.21875 4.765625 -2.421875 L 4.765625 -3.046875 C 5.703125 -3.1875 6.09375 -3.71875 6.09375 -4.703125 C 6.09375 -5.546875 5.734375 -6.3125 4.53125 -6.3125 Z M 4.40625 -1.6875 C 4.125 -1.6875 3.921875 -1.46875 3.921875 -1.1875 C 3.921875 -0.890625 4.125 -0.671875 4.40625 -0.671875 C 4.6875 -0.671875 4.90625 -0.890625 4.90625 -1.1875 C 4.90625 -1.46875 4.6875 -1.6875 4.40625 -1.6875 Z M 4.40625 -1.6875 "/>
</g>
<g id="glyph-1-1">
<path d="M 6.53125 0 L 7.9375 0 L 4.859375 -9.640625 L 3.171875 -9.640625 L 0.078125 0 L 1.421875 0 L 2.15625 -2.421875 L 5.8125 -2.421875 Z M 2.484375 -3.5 L 3.984375 -8.546875 L 5.484375 -3.5 Z M 2.484375 -3.5 "/>
</g>
<g id="glyph-1-2">
<path d="M 6.90625 -8.203125 C 6.03125 -7.8125 5.359375 -7.5 3.53125 -7.546875 C 1.90625 -7.546875 0.6875 -6.484375 0.6875 -4.96875 C 0.6875 -4.015625 1.078125 -3.375 1.9375 -2.921875 C 1.40625 -2.578125 1.125 -2.09375 1.125 -1.625 C 1.125 -0.875 1.703125 -0.21875 3.03125 -0.21875 L 4.1875 -0.21875 C 5.109375 -0.21875 5.671875 0.125 5.671875 0.828125 C 5.671875 1.5625 5.109375 1.96875 3.515625 1.96875 C 1.890625 1.96875 1.515625 1.578125 1.515625 0.734375 L 0.34375 0.734375 C 0.34375 2.234375 1.109375 2.984375 3.515625 2.984375 C 5.796875 2.984375 6.96875 2.171875 6.96875 0.734375 C 6.96875 -0.4375 5.96875 -1.296875 4.453125 -1.296875 L 3.28125 -1.296875 C 2.515625 -1.296875 2.3125 -1.5625 2.3125 -1.90625 C 2.3125 -2.171875 2.46875 -2.4375 2.671875 -2.59375 C 2.984375 -2.484375 3.28125 -2.453125 3.609375 -2.453125 C 5.375 -2.453125 6.421875 -3.5 6.421875 -4.953125 C 6.421875 -5.8125 5.984375 -6.421875 5.125 -6.8125 C 5.96875 -6.8125 6.65625 -6.84375 7.28125 -7.046875 Z M 3.53125 -6.625 C 4.578125 -6.625 5.109375 -6.0625 5.109375 -4.984375 C 5.109375 -3.921875 4.5625 -3.296875 3.5625 -3.296875 C 2.546875 -3.296875 2 -3.984375 2 -4.96875 C 2 -5.9375 2.53125 -6.625 3.53125 -6.625 Z M 3.53125 -6.625 "/>
</g>
<g id="glyph-1-3">
<path d="M 6.90625 -3.90625 C 6.90625 -6.15625 5.859375 -7.546875 3.859375 -7.546875 C 1.953125 -7.546875 0.796875 -5.90625 0.796875 -3.609375 C 0.796875 -1.28125 2 0.171875 4.0625 0.171875 C 5.078125 0.171875 5.90625 -0.1875 6.640625 -0.75 L 6.078125 -1.53125 C 5.4375 -1.078125 4.890625 -0.875 4.15625 -0.875 C 3.09375 -0.875 2.296875 -1.546875 2.171875 -3.25 L 6.875 -3.25 C 6.890625 -3.421875 6.90625 -3.65625 6.90625 -3.90625 Z M 5.625 -4.203125 L 2.171875 -4.203125 C 2.265625 -5.84375 2.90625 -6.53125 3.890625 -6.53125 C 5.046875 -6.53125 5.625 -5.71875 5.625 -4.28125 Z M 5.625 -4.203125 "/>
</g>
<g id="glyph-1-4">
</g>
<g id="glyph-1-5">
<path d="M 3.15625 -11.828125 C 1.796875 -9.890625 0.5625 -8.21875 0.5625 -4.90625 C 0.5625 -1.578125 1.796875 0.078125 3.15625 2.03125 L 3.96875 1.46875 C 2.71875 -0.390625 1.90625 -1.90625 1.90625 -4.90625 C 1.90625 -7.90625 2.71875 -9.40625 3.96875 -11.265625 Z M 3.15625 -11.828125 "/>
</g>
<g id="glyph-1-6">
<path d="M 6.75 -7.375 L 5.421875 -7.375 L 3.484375 -0.9375 L 1.515625 -7.375 L 0.140625 -7.375 L 2.625 0 L 3.046875 0 C 2.625 1.140625 2.21875 1.71875 0.71875 1.96875 L 0.859375 2.984375 C 2.890625 2.765625 3.765625 1.609375 4.28125 0.046875 Z M 6.75 -7.375 "/>
</g>
<g id="glyph-1-7">
<path d="M 6.296875 -1.71875 L 6.296875 -5.09375 C 6.296875 -6.640625 5.484375 -7.546875 3.703125 -7.546875 C 2.890625 -7.546875 2.078125 -7.375 1.15625 -7.046875 L 1.484375 -6.109375 C 2.234375 -6.359375 2.921875 -6.5 3.46875 -6.5 C 4.5 -6.5 5.015625 -6.109375 5.015625 -5.046875 L 5.015625 -4.5 L 3.875 -4.5 C 1.8125 -4.5 0.625 -3.640625 0.625 -2.0625 C 0.625 -0.734375 1.515625 0.171875 2.984375 0.171875 C 3.875 0.171875 4.65625 -0.171875 5.1875 -0.9375 C 5.40625 -0.203125 5.875 0.078125 6.625 0.171875 L 6.921875 -0.734375 C 6.53125 -0.875 6.296875 -1.078125 6.296875 -1.71875 Z M 3.28125 -0.796875 C 2.4375 -0.796875 2 -1.265625 2 -2.125 C 2 -3.140625 2.6875 -3.640625 4.046875 -3.640625 L 5.015625 -3.640625 L 5.015625 -1.953125 C 4.59375 -1.171875 4.03125 -0.796875 3.28125 -0.796875 Z M 3.28125 -0.796875 "/>
</g>
<g id="glyph-1-8">
<path d="M 4.53125 -7.546875 C 3.640625 -7.546875 2.953125 -6.984375 2.5625 -5.875 L 2.4375 -7.375 L 1.328125 -7.375 L 1.328125 0 L 2.625 0 L 2.625 -4.21875 C 2.921875 -5.625 3.453125 -6.28125 4.375 -6.28125 C 4.640625 -6.28125 4.796875 -6.265625 5.03125 -6.203125 L 5.265625 -7.46875 C 5.046875 -7.515625 4.78125 -7.546875 4.53125 -7.546875 Z M 4.53125 -7.546875 "/>
</g>
<g id="glyph-1-9">
<path d="M 3.328125 -7.546875 C 1.8125 -7.546875 0.671875 -6.6875 0.671875 -5.515625 C 0.671875 -4.484375 1.296875 -3.796875 2.890625 -3.375 C 4.328125 -3 4.6875 -2.71875 4.6875 -1.984375 C 4.6875 -1.28125 4.078125 -0.875 3.109375 -0.875 C 2.3125 -0.875 1.625 -1.140625 1.03125 -1.578125 L 0.34375 -0.796875 C 1 -0.234375 1.890625 0.171875 3.140625 0.171875 C 4.640625 0.171875 6.046875 -0.53125 6.046875 -2.078125 C 6.046875 -3.359375 5.15625 -3.96875 3.59375 -4.375 C 2.40625 -4.671875 2.015625 -4.953125 2.015625 -5.5625 C 2.015625 -6.140625 2.53125 -6.53125 3.375 -6.53125 C 4.0625 -6.53125 4.640625 -6.3125 5.296875 -5.890625 L 5.84375 -6.703125 C 5.140625 -7.234375 4.375 -7.546875 3.328125 -7.546875 Z M 3.328125 -7.546875 "/>
</g>
<g id="glyph-1-10">
<path d="M 5.65625 -5.09375 C 6.59375 -5.296875 7.46875 -6.015625 7.46875 -7.203125 C 7.46875 -8.890625 6.0625 -9.640625 3.6875 -9.640625 L 1.40625 -9.640625 L 1.40625 0 L 4.0625 0 C 6.296875 0 7.875 -0.703125 7.875 -2.75 C 7.875 -4.375 6.78125 -4.90625 5.65625 -5.09375 Z M 3.828125 -8.59375 C 5.25 -8.59375 6.109375 -8.296875 6.109375 -7.109375 C 6.109375 -6.09375 5.265625 -5.5625 4.1875 -5.5625 L 2.734375 -5.5625 L 2.734375 -8.59375 Z M 4.0625 -1.0625 L 2.734375 -1.0625 L 2.734375 -4.53125 L 4.3125 -4.53125 C 5.46875 -4.53125 6.484375 -4.109375 6.484375 -2.75 C 6.484375 -1.34375 5.453125 -1.0625 4.0625 -1.0625 Z M 4.0625 -1.0625 "/>
</g>
<g id="glyph-1-11">
<path d="M 3.9375 -9.640625 L 1.40625 -9.640625 L 1.40625 0 L 2.734375 0 L 2.734375 -3.546875 L 3.953125 -3.546875 C 6.078125 -3.546875 7.6875 -4.453125 7.6875 -6.65625 C 7.6875 -8.6875 6.265625 -9.640625 3.9375 -9.640625 Z M 3.890625 -4.59375 L 2.734375 -4.59375 L 2.734375 -8.609375 L 3.921875 -8.609375 C 5.34375 -8.609375 6.265625 -8.09375 6.265625 -6.65625 C 6.265625 -5.015625 5.3125 -4.59375 3.890625 -4.59375 Z M 3.890625 -4.59375 "/>
</g>
<g id="glyph-1-12">
<path d="M 1.375 -11.828125 L 0.5625 -11.265625 C 1.8125 -9.40625 2.625 -7.90625 2.625 -4.90625 C 2.625 -1.90625 1.8125 -0.390625 0.5625 1.46875 L 1.375 2.03125 C 2.75 0.078125 3.96875 -1.578125 3.96875 -4.90625 C 3.96875 -8.21875 2.75 -9.890625 1.375 -11.828125 Z M 1.375 -11.828125 "/>
</g>
<g id="glyph-2-0">
<path d="M -14.703125 -7.609375 L -14.703125 -1.71875 L 4.90625 -1.71875 L 4.90625 -7.609375 Z M -13.96875 -6.84375 L 4.171875 -6.84375 L 4.171875 -2.484375 L -13.96875 -2.484375 Z M -6.3125 -4.53125 C -6.3125 -3.984375 -6.140625 -3.234375 -5.765625 -3.234375 C -5.59375 -3.234375 -5.453125 -3.359375 -5.453125 -3.5625 C -5.453125 -3.625 -5.453125 -3.6875 -5.484375 -3.75 C -5.59375 -3.984375 -5.640625 -4.1875 -5.640625 -4.484375 C -5.640625 -5.1875 -5.21875 -5.328125 -4.671875 -5.328125 C -3.9375 -5.328125 -3.65625 -5.0625 -3.59375 -4.0625 L -2.421875 -4.0625 C -2.21875 -4.0625 -2.09375 -4.234375 -2.09375 -4.40625 C -2.09375 -4.578125 -2.21875 -4.765625 -2.421875 -4.765625 L -3.046875 -4.765625 C -3.1875 -5.703125 -3.71875 -6.09375 -4.703125 -6.09375 C -5.546875 -6.09375 -6.3125 -5.734375 -6.3125 -4.53125 Z M -1.6875 -4.40625 C -1.6875 -4.125 -1.46875 -3.921875 -1.1875 -3.921875 C -0.890625 -3.921875 -0.671875 -4.125 -0.671875 -4.40625 C -0.671875 -4.6875 -0.890625 -4.90625 -1.1875 -4.90625 C -1.46875 -4.90625 -1.6875 -4.6875 -1.6875 -4.40625 Z M -1.6875 -4.40625 "/>
</g>
<g id="glyph-2-1">
<path d="M 0 -6.53125 L 0 -8.125 L -4.328125 -5.515625 C -4.75 -6.90625 -5.5625 -7.609375 -6.921875 -7.609375 C -8.71875 -7.609375 -9.640625 -6.34375 -9.640625 -3.9375 L -9.640625 -1.40625 L 0 -1.40625 L 0 -2.734375 L -4.09375 -2.734375 L -4.09375 -4.234375 Z M -5.109375 -2.734375 L -8.609375 -2.734375 L -8.609375 -3.921875 C -8.609375 -5.5 -8.125 -6.1875 -6.921875 -6.1875 C -5.609375 -6.1875 -5.109375 -5.421875 -5.109375 -4.078125 Z M -5.109375 -2.734375 "/>
</g>
<g id="glyph-2-2">
<path d="M -1.71875 -6.296875 L -5.09375 -6.296875 C -6.640625 -6.296875 -7.546875 -5.484375 -7.546875 -3.703125 C -7.546875 -2.890625 -7.375 -2.078125 -7.046875 -1.15625 L -6.109375 -1.484375 C -6.359375 -2.234375 -6.5 -2.921875 -6.5 -3.46875 C -6.5 -4.5 -6.109375 -5.015625 -5.046875 -5.015625 L -4.5 -5.015625 L -4.5 -3.875 C -4.5 -1.8125 -3.640625 -0.625 -2.0625 -0.625 C -0.734375 -0.625 0.171875 -1.515625 0.171875 -2.984375 C 0.171875 -3.875 -0.171875 -4.65625 -0.9375 -5.1875 C -0.203125 -5.40625 0.078125 -5.875 0.171875 -6.625 L -0.734375 -6.921875 C -0.875 -6.53125 -1.078125 -6.296875 -1.71875 -6.296875 Z M -0.796875 -3.28125 C -0.796875 -2.4375 -1.265625 -2 -2.125 -2 C -3.140625 -2 -3.640625 -2.6875 -3.640625 -4.046875 L -3.640625 -5.015625 L -1.953125 -5.015625 C -1.171875 -4.59375 -0.796875 -4.03125 -0.796875 -3.28125 Z M -0.796875 -3.28125 "/>
</g>
<g id="glyph-2-3">
<path d="M -1.21875 -4.5625 C -1 -4.203125 -0.890625 -3.90625 -0.890625 -3.578125 C -0.890625 -2.9375 -1.25 -2.703125 -1.984375 -2.703125 L -6.390625 -2.703125 L -6.390625 -4.3125 L -7.375 -4.453125 L -7.375 -2.703125 L -9.203125 -2.703125 L -9.046875 -1.40625 L -7.375 -1.40625 L -7.375 -0.125 L -6.390625 -0.125 L -6.390625 -1.40625 L -1.9375 -1.40625 C -0.5625 -1.40625 0.171875 -2.15625 0.171875 -3.40625 C 0.171875 -4.03125 0 -4.5625 -0.34375 -5.046875 Z M -1.21875 -4.5625 "/>
</g>
<g id="glyph-2-4">
<path d="M -3.90625 -6.90625 C -6.15625 -6.90625 -7.546875 -5.859375 -7.546875 -3.859375 C -7.546875 -1.953125 -5.90625 -0.796875 -3.609375 -0.796875 C -1.28125 -0.796875 0.171875 -2 0.171875 -4.0625 C 0.171875 -5.078125 -0.1875 -5.90625 -0.75 -6.640625 L -1.53125 -6.078125 C -1.078125 -5.4375 -0.875 -4.890625 -0.875 -4.15625 C -0.875 -3.09375 -1.546875 -2.296875 -3.25 -2.171875 L -3.25 -6.875 C -3.421875 -6.890625 -3.65625 -6.90625 -3.90625 -6.90625 Z M -4.203125 -5.625 L -4.203125 -2.171875 C -5.84375 -2.265625 -6.53125 -2.90625 -6.53125 -3.890625 C -6.53125 -5.046875 -5.71875 -5.625 -4.28125 -5.625 Z M -4.203125 -5.625 "/>
</g>
<g id="glyph-2-5">
</g>
<g id="glyph-2-6">
<path d="M -7.546875 -4.109375 C -7.546875 -2 -5.96875 -0.796875 -3.6875 -0.796875 C -1.34375 -0.796875 0.171875 -1.984375 0.171875 -4.09375 C 0.171875 -6.171875 -1.40625 -7.375 -3.703125 -7.375 C -6.03125 -7.375 -7.546875 -6.203125 -7.546875 -4.109375 Z M -6.515625 -4.109375 C -6.515625 -5.3125 -5.609375 -5.984375 -3.703125 -5.984375 C -1.765625 -5.984375 -0.875 -5.3125 -0.875 -4.09375 C -0.875 -2.859375 -1.765625 -2.1875 -3.6875 -2.1875 C -5.609375 -2.1875 -6.515625 -2.875 -6.515625 -4.109375 Z M -6.515625 -4.109375 "/>
</g>
<g id="glyph-2-7">
<path d="M -9.46875 -3.84375 C -9.46875 -4.21875 -9.390625 -4.640625 -9.1875 -5.125 L -10.125 -5.53125 C -10.375 -4.9375 -10.5 -4.46875 -10.5 -3.765625 C -10.5 -2.265625 -9.625 -1.453125 -8.390625 -1.453125 L -7.375 -1.453125 L -7.375 -0.140625 L -6.390625 -0.140625 L -6.390625 -1.453125 L 0 -1.453125 L 0 -2.75 L -6.390625 -2.75 L -6.390625 -4.390625 L -7.375 -4.53125 L -7.375 -2.75 L -8.40625 -2.75 C -9.109375 -2.75 -9.46875 -3.03125 -9.46875 -3.84375 Z M -9.46875 -3.84375 "/>
</g>
<g id="glyph-2-8">
<path d="M -7.546875 -4.015625 C -7.546875 -2.015625 -5.984375 -0.796875 -3.625 -0.796875 C -1.25 -0.796875 0.171875 -2.03125 0.171875 -4.015625 C 0.171875 -4.875 -0.109375 -5.609375 -0.640625 -6.265625 L -1.484375 -5.6875 C -1.125 -5.125 -0.921875 -4.6875 -0.921875 -4.078125 C -0.921875 -2.90625 -1.71875 -2.1875 -3.65625 -2.1875 C -5.578125 -2.1875 -6.484375 -2.90625 -6.484375 -4.078125 C -6.484375 -4.6875 -6.296875 -5.15625 -5.9375 -5.65625 L -6.75 -6.265625 C -7.328125 -5.59375 -7.546875 -4.890625 -7.546875 -4.015625 Z M -7.546875 -4.015625 "/>
</g>
<g id="glyph-2-9">
<path d="M -7.546875 -8.734375 C -7.546875 -7.734375 -7.015625 -7.0625 -6.21875 -6.53125 C -7.0625 -6.265625 -7.546875 -5.59375 -7.546875 -4.671875 C -7.546875 -3.703125 -7.046875 -3.03125 -6.296875 -2.546875 L -7.375 -2.4375 L -7.375 -1.328125 L 0 -1.328125 L 0 -2.625 L -5.234375 -2.625 C -6.015625 -3.109375 -6.53125 -3.5625 -6.53125 -4.359375 C -6.53125 -4.90625 -6.21875 -5.390625 -5.109375 -5.390625 L 0 -5.390625 L 0 -6.671875 L -5.234375 -6.671875 C -6.015625 -7.1875 -6.53125 -7.609375 -6.53125 -8.40625 C -6.53125 -8.96875 -6.21875 -9.453125 -5.109375 -9.453125 L 0 -9.453125 L 0 -10.734375 L -5.296875 -10.734375 C -6.671875 -10.734375 -7.546875 -9.9375 -7.546875 -8.734375 Z M -7.546875 -8.734375 "/>
</g>
<g id="glyph-2-10">
<path d="M -7.546875 -4.71875 C -7.546875 -3.875 -7.140625 -3.078125 -6.390625 -2.53125 L -7.375 -2.4375 L -7.375 -1.328125 L 2.984375 -1.328125 L 2.828125 -2.625 L -0.671875 -2.625 C -0.09375 -3.09375 0.171875 -3.75 0.171875 -4.546875 C 0.171875 -6.453125 -1.453125 -7.453125 -3.703125 -7.453125 C -6.015625 -7.453125 -7.546875 -6.671875 -7.546875 -4.71875 Z M -0.875 -4.234375 C -0.875 -3.5625 -1.203125 -3 -1.78125 -2.625 L -5.375 -2.625 C -5.96875 -3.015625 -6.53125 -3.609375 -6.53125 -4.390625 C -6.53125 -5.5 -5.609375 -6.0625 -3.703125 -6.0625 C -1.765625 -6.0625 -0.875 -5.421875 -0.875 -4.234375 Z M -0.875 -4.234375 "/>
</g>
<g id="glyph-2-11">
<path d="M -7.546875 -3.328125 C -7.546875 -1.8125 -6.6875 -0.671875 -5.515625 -0.671875 C -4.484375 -0.671875 -3.796875 -1.296875 -3.375 -2.890625 C -3 -4.328125 -2.71875 -4.6875 -1.984375 -4.6875 C -1.28125 -4.6875 -0.875 -4.078125 -0.875 -3.109375 C -0.875 -2.3125 -1.140625 -1.625 -1.578125 -1.03125 L -0.796875 -0.34375 C -0.234375 -1 0.171875 -1.890625 0.171875 -3.140625 C 0.171875 -4.640625 -0.53125 -6.046875 -2.078125 -6.046875 C -3.359375 -6.046875 -3.96875 -5.15625 -4.375 -3.59375 C -4.671875 -2.40625 -4.953125 -2.015625 -5.5625 -2.015625 C -6.140625 -2.015625 -6.53125 -2.53125 -6.53125 -3.375 C -6.53125 -4.0625 -6.3125 -4.640625 -5.890625 -5.296875 L -6.703125 -5.84375 C -7.234375 -5.140625 -7.546875 -4.375 -7.546875 -3.328125 Z M -7.546875 -3.328125 "/>
</g>
<g id="glyph-2-12">
<path d="M -10.921875 -1.953125 C -10.921875 -1.421875 -10.546875 -1.0625 -10.03125 -1.0625 C -9.546875 -1.0625 -9.171875 -1.421875 -9.171875 -1.953125 C -9.171875 -2.5 -9.546875 -2.875 -10.03125 -2.875 C -10.546875 -2.875 -10.921875 -2.5 -10.921875 -1.953125 Z M -7.375 -2.625 L -7.375 -1.328125 L 0 -1.328125 L 0 -2.625 Z M -7.375 -2.625 "/>
</g>
<g id="glyph-2-13">
<path d="M -7.546875 -4.796875 C -7.546875 -3.84375 -7.046875 -3.046875 -6.28125 -2.546875 L -7.375 -2.4375 L -7.375 -1.328125 L 0 -1.328125 L 0 -2.625 L -5.234375 -2.625 C -6.015625 -3.109375 -6.53125 -3.671875 -6.53125 -4.5 C -6.53125 -5.203125 -6.21875 -5.65625 -5.109375 -5.65625 L 0 -5.65625 L 0 -6.9375 L -5.296875 -6.9375 C -6.6875 -6.9375 -7.546875 -6.15625 -7.546875 -4.796875 Z M -7.546875 -4.796875 "/>
</g>
<g id="glyph-2-14">
<path d="M 0.171875 -2.796875 C 0.171875 -3.171875 0.0625 -3.546875 -0.078125 -3.828125 L -0.984375 -3.484375 C -0.921875 -3.34375 -0.890625 -3.1875 -0.890625 -3.015625 C -0.890625 -2.671875 -1.09375 -2.546875 -1.484375 -2.546875 L -10.5 -2.546875 L -10.34375 -1.265625 L -1.453125 -1.265625 C -0.40625 -1.265625 0.171875 -1.859375 0.171875 -2.796875 Z M 0.171875 -2.796875 "/>
</g>
<g id="glyph-2-15">
<path d="M -7.546875 -4.796875 C -7.546875 -3.875 -7.078125 -3.15625 -6.359375 -2.625 L -10.46875 -2.625 L -10.328125 -1.328125 L 0 -1.328125 L 0 -2.625 L -5.25 -2.625 C -6.015625 -3.109375 -6.53125 -3.6875 -6.53125 -4.484375 C -6.53125 -5.1875 -6.21875 -5.65625 -5.109375 -5.65625 L 0 -5.65625 L 0 -6.9375 L -5.296875 -6.9375 C -6.671875 -6.9375 -7.546875 -6.140625 -7.546875 -4.796875 Z M -7.546875 -4.796875 "/>
</g>
<g id="glyph-2-16">
<path d="M -8.203125 -6.90625 C -7.8125 -6.03125 -7.5 -5.359375 -7.546875 -3.53125 C -7.546875 -1.90625 -6.484375 -0.6875 -4.96875 -0.6875 C -4.015625 -0.6875 -3.375 -1.078125 -2.921875 -1.9375 C -2.578125 -1.40625 -2.09375 -1.125 -1.625 -1.125 C -0.875 -1.125 -0.21875 -1.703125 -0.21875 -3.03125 L -0.21875 -4.1875 C -0.21875 -5.109375 0.125 -5.671875 0.828125 -5.671875 C 1.5625 -5.671875 1.96875 -5.109375 1.96875 -3.515625 C 1.96875 -1.890625 1.578125 -1.515625 0.734375 -1.515625 L 0.734375 -0.34375 C 2.234375 -0.34375 2.984375 -1.109375 2.984375 -3.515625 C 2.984375 -5.796875 2.171875 -6.96875 0.734375 -6.96875 C -0.4375 -6.96875 -1.296875 -5.96875 -1.296875 -4.453125 L -1.296875 -3.28125 C -1.296875 -2.515625 -1.5625 -2.3125 -1.90625 -2.3125 C -2.171875 -2.3125 -2.4375 -2.46875 -2.59375 -2.671875 C -2.484375 -2.984375 -2.453125 -3.28125 -2.453125 -3.609375 C -2.453125 -5.375 -3.5 -6.421875 -4.953125 -6.421875 C -5.8125 -6.421875 -6.421875 -5.984375 -6.8125 -5.125 C -6.8125 -5.96875 -6.84375 -6.65625 -7.046875 -7.28125 Z M -6.625 -3.53125 C -6.625 -4.578125 -6.0625 -5.109375 -4.984375 -5.109375 C -3.921875 -5.109375 -3.296875 -4.5625 -3.296875 -3.5625 C -3.296875 -2.546875 -3.984375 -2 -4.96875 -2 C -5.9375 -2 -6.625 -2.53125 -6.625 -3.53125 Z M -6.625 -3.53125 "/>
</g>
<g id="glyph-3-0">
<path d="M 14.125 -27.296875 L 3.203125 -27.296875 L 3.203125 9.09375 L 14.125 9.09375 Z M 12.71875 -25.953125 L 12.71875 7.75 L 4.625 7.75 L 4.625 -25.953125 Z M 8.421875 -11.71875 C 7.40625 -11.71875 6 -11.40625 6 -10.71875 C 6 -10.375 6.234375 -10.109375 6.625 -10.109375 C 6.734375 -10.109375 6.84375 -10.140625 6.96875 -10.1875 C 7.40625 -10.40625 7.78125 -10.484375 8.3125 -10.484375 C 9.625 -10.484375 9.90625 -9.703125 9.90625 -8.6875 C 9.90625 -7.3125 9.40625 -6.78125 7.546875 -6.6875 L 7.546875 -4.5 C 7.546875 -4.109375 7.859375 -3.875 8.1875 -3.875 C 8.5 -3.875 8.84375 -4.109375 8.84375 -4.5 L 8.84375 -5.671875 C 10.578125 -5.921875 11.3125 -6.921875 11.3125 -8.734375 C 11.3125 -10.296875 10.65625 -11.71875 8.421875 -11.71875 Z M 8.1875 -3.125 C 7.671875 -3.125 7.28125 -2.734375 7.28125 -2.203125 C 7.28125 -1.65625 7.671875 -1.25 8.1875 -1.25 C 8.703125 -1.25 9.09375 -1.65625 9.09375 -2.203125 C 9.09375 -2.734375 8.703125 -3.125 8.1875 -3.125 Z M 8.1875 -3.125 "/>
</g>
<g id="glyph-3-1">
<path d="M 12.140625 0 L 15.078125 0 L 10.25 -8.03125 C 12.8125 -8.8125 14.125 -10.328125 14.125 -12.84375 C 14.125 -16.203125 11.78125 -17.90625 7.3125 -17.90625 L 2.59375 -17.90625 L 2.59375 0 L 5.0625 0 L 5.0625 -7.59375 L 7.859375 -7.59375 Z M 5.0625 -9.484375 L 5.0625 -15.984375 L 7.28125 -15.984375 C 10.21875 -15.984375 11.484375 -15.078125 11.484375 -12.84375 C 11.484375 -10.421875 10.0625 -9.484375 7.5625 -9.484375 Z M 5.0625 -9.484375 "/>
</g>
<g id="glyph-3-2">
<path d="M 7.625 -14.015625 C 3.71875 -14.015625 1.484375 -11.078125 1.484375 -6.84375 C 1.484375 -2.5 3.6875 0.3125 7.59375 0.3125 C 11.46875 0.3125 13.703125 -2.625 13.703125 -6.859375 C 13.703125 -11.203125 11.515625 -14.015625 7.625 -14.015625 Z M 7.625 -12.09375 C 9.875 -12.09375 11.125 -10.421875 11.125 -6.859375 C 11.125 -3.28125 9.875 -1.609375 7.59375 -1.609375 C 5.296875 -1.609375 4.0625 -3.28125 4.0625 -6.84375 C 4.0625 -10.421875 5.328125 -12.09375 7.625 -12.09375 Z M 7.625 -12.09375 "/>
</g>
<g id="glyph-3-3">
<path d="M 8.859375 -18.21875 C 4.8125 -18.21875 1.4375 -15.03125 1.4375 -8.96875 C 1.4375 -2.9375 4.578125 0.3125 8.921875 0.3125 C 11.34375 0.3125 13.078125 -0.671875 14.046875 -1.6875 L 12.796875 -3.28125 C 11.78125 -2.515625 10.6875 -1.765625 9 -1.765625 C 6.21875 -1.765625 4.0625 -3.796875 4.0625 -8.96875 C 4.0625 -14.375 6.3125 -16.203125 9.015625 -16.203125 C 10.265625 -16.203125 11.359375 -15.78125 12.484375 -14.875 L 13.828125 -16.453125 C 12.40625 -17.609375 11.125 -18.21875 8.859375 -18.21875 Z M 8.859375 -18.21875 "/>
</g>
<g id="glyph-3-4">
<path d="M 8.734375 -14.015625 C 7.078125 -14.015625 5.796875 -13.265625 4.859375 -11.984375 L 4.859375 -19.5 L 2.46875 -19.21875 L 2.46875 0 L 4.578125 0 L 4.8125 -1.515625 C 5.75 -0.359375 6.9375 0.3125 8.453125 0.3125 C 11.78125 0.3125 13.828125 -2.578125 13.828125 -6.859375 C 13.828125 -11.4375 11.828125 -14.015625 8.734375 -14.015625 Z M 7.875 -1.59375 C 6.65625 -1.59375 5.5625 -2.34375 4.859375 -3.4375 L 4.859375 -9.984375 C 5.5625 -11.078125 6.546875 -12.109375 8.0625 -12.109375 C 9.984375 -12.109375 11.265625 -10.765625 11.265625 -6.859375 C 11.265625 -3.125 9.875 -1.59375 7.875 -1.59375 Z M 7.875 -1.59375 "/>
</g>
<g id="glyph-3-5">
<path d="M 11.703125 -3.203125 L 11.703125 -9.46875 C 11.703125 -12.328125 10.1875 -14.015625 6.890625 -14.015625 C 5.359375 -14.015625 3.84375 -13.703125 2.15625 -13.078125 L 2.75 -11.34375 C 4.15625 -11.796875 5.4375 -12.0625 6.453125 -12.0625 C 8.34375 -12.0625 9.3125 -11.34375 9.3125 -9.359375 L 9.3125 -8.34375 L 7.203125 -8.34375 C 3.375 -8.34375 1.171875 -6.765625 1.171875 -3.828125 C 1.171875 -1.375 2.8125 0.3125 5.53125 0.3125 C 7.203125 0.3125 8.65625 -0.3125 9.625 -1.734375 C 10.03125 -0.390625 10.921875 0.15625 12.296875 0.3125 L 12.84375 -1.359375 C 12.140625 -1.609375 11.703125 -2 11.703125 -3.203125 Z M 6.078125 -1.484375 C 4.53125 -1.484375 3.71875 -2.34375 3.71875 -3.953125 C 3.71875 -5.828125 4.984375 -6.765625 7.515625 -6.765625 L 9.3125 -6.765625 L 9.3125 -3.609375 C 8.53125 -2.1875 7.484375 -1.484375 6.078125 -1.484375 Z M 6.078125 -1.484375 "/>
</g>
<g id="glyph-3-6">
<path d="M 6.1875 -14.015625 C 3.359375 -14.015625 1.25 -12.421875 1.25 -10.25 C 1.25 -8.3125 2.421875 -7.046875 5.375 -6.265625 C 8.03125 -5.5625 8.703125 -5.046875 8.703125 -3.6875 C 8.703125 -2.390625 7.5625 -1.609375 5.765625 -1.609375 C 4.296875 -1.609375 3.015625 -2.109375 1.921875 -2.9375 L 0.65625 -1.484375 C 1.84375 -0.4375 3.515625 0.3125 5.828125 0.3125 C 8.609375 0.3125 11.234375 -0.984375 11.234375 -3.84375 C 11.234375 -6.234375 9.5625 -7.390625 6.6875 -8.109375 C 4.46875 -8.6875 3.75 -9.203125 3.75 -10.328125 C 3.75 -11.40625 4.703125 -12.109375 6.265625 -12.109375 C 7.546875 -12.109375 8.609375 -11.71875 9.828125 -10.953125 L 10.84375 -12.453125 C 9.546875 -13.4375 8.109375 -14.015625 6.1875 -14.015625 Z M 6.1875 -14.015625 "/>
</g>
<g id="glyph-3-7">
<path d="M 12.8125 -7.25 C 12.8125 -11.4375 10.875 -14.015625 7.171875 -14.015625 C 3.640625 -14.015625 1.484375 -10.96875 1.484375 -6.703125 C 1.484375 -2.359375 3.71875 0.3125 7.546875 0.3125 C 9.4375 0.3125 10.96875 -0.34375 12.328125 -1.40625 L 11.28125 -2.828125 C 10.09375 -2 9.078125 -1.640625 7.71875 -1.640625 C 5.75 -1.640625 4.265625 -2.859375 4.03125 -6.03125 L 12.765625 -6.03125 C 12.796875 -6.34375 12.8125 -6.78125 12.8125 -7.25 Z M 10.453125 -7.796875 L 4.03125 -7.796875 C 4.21875 -10.84375 5.40625 -12.109375 7.234375 -12.109375 C 9.390625 -12.109375 10.453125 -10.640625 10.453125 -7.953125 Z M 10.453125 -7.796875 "/>
</g>
<g id="glyph-3-8">
<path d="M 10.6875 -19.5 L 10.6875 -12.328125 C 9.78125 -13.28125 8.609375 -14.015625 7 -14.015625 C 3.640625 -14.015625 1.609375 -10.96875 1.609375 -6.78125 C 1.609375 -2.515625 3.453125 0.3125 6.78125 0.3125 C 8.46875 0.3125 9.859375 -0.515625 10.734375 -1.890625 L 10.96875 0 L 13.078125 0 L 13.078125 -19.21875 Z M 7.3125 -1.59375 C 5.328125 -1.59375 4.1875 -3.21875 4.1875 -6.84375 C 4.1875 -10.40625 5.453125 -12.109375 7.515625 -12.109375 C 8.859375 -12.109375 9.828125 -11.40625 10.6875 -10.328125 L 10.6875 -3.609375 C 9.78125 -2.34375 8.84375 -1.59375 7.3125 -1.59375 Z M 7.3125 -1.59375 "/>
</g>
<g id="glyph-3-9">
<path d="M 8.921875 -14.015625 C 7.125 -14.015625 5.671875 -13.078125 4.734375 -11.671875 L 4.53125 -13.703125 L 2.46875 -13.703125 L 2.46875 0 L 4.859375 0 L 4.859375 -9.71875 C 5.765625 -11.1875 6.8125 -12.140625 8.34375 -12.140625 C 9.671875 -12.140625 10.5 -11.546875 10.5 -9.484375 L 10.5 0 L 12.890625 0 L 12.890625 -9.828125 C 12.890625 -12.421875 11.4375 -14.015625 8.921875 -14.015625 Z M 8.921875 -14.015625 "/>
</g>
<g id="glyph-3-10">
<path d="M 6.34375 -17.90625 L 2.59375 -17.90625 L 2.59375 0 L 6.890625 0 C 10.765625 0 15.3125 -1.734375 15.3125 -9.046875 C 15.3125 -16.484375 10.921875 -17.90625 6.34375 -17.90625 Z M 6.890625 -15.9375 C 9.75 -15.9375 12.6875 -15.109375 12.6875 -9.046875 C 12.6875 -3.140625 9.875 -1.953125 7.078125 -1.953125 L 5.0625 -1.953125 L 5.0625 -15.9375 Z M 6.890625 -15.9375 "/>
</g>
<g id="glyph-3-11">
<path d="M 3.640625 -20.28125 C 2.65625 -20.28125 1.96875 -19.578125 1.96875 -18.640625 C 1.96875 -17.734375 2.65625 -17.03125 3.640625 -17.03125 C 4.65625 -17.03125 5.328125 -17.734375 5.328125 -18.640625 C 5.328125 -19.578125 4.65625 -20.28125 3.640625 -20.28125 Z M 4.859375 -13.703125 L 2.46875 -13.703125 L 2.46875 0 L 4.859375 0 Z M 4.859375 -13.703125 "/>
</g>
<g id="glyph-3-12">
<path d="M 8.421875 -14.015625 C 6.765625 -14.015625 5.484375 -12.96875 4.765625 -10.921875 L 4.53125 -13.703125 L 2.46875 -13.703125 L 2.46875 0 L 4.859375 0 L 4.859375 -7.828125 C 5.4375 -10.453125 6.421875 -11.671875 8.140625 -11.671875 C 8.625 -11.671875 8.921875 -11.625 9.328125 -11.515625 L 9.78125 -13.859375 C 9.359375 -13.96875 8.859375 -14.015625 8.421875 -14.015625 Z M 8.421875 -14.015625 "/>
</g>
<g id="glyph-3-13">
<path d="M 7.46875 -14.015625 C 3.75 -14.015625 1.484375 -11.109375 1.484375 -6.734375 C 1.484375 -2.3125 3.765625 0.3125 7.46875 0.3125 C 9.046875 0.3125 10.421875 -0.203125 11.640625 -1.203125 L 10.5625 -2.75 C 9.515625 -2.078125 8.703125 -1.71875 7.5625 -1.71875 C 5.40625 -1.71875 4.0625 -3.203125 4.0625 -6.78125 C 4.0625 -10.34375 5.40625 -12.03125 7.5625 -12.03125 C 8.703125 -12.03125 9.5625 -11.703125 10.5 -11.03125 L 11.640625 -12.53125 C 10.375 -13.59375 9.078125 -14.015625 7.46875 -14.015625 Z M 7.46875 -14.015625 "/>
</g>
<g id="glyph-3-14">
<path d="M 8.921875 -14.015625 C 7.203125 -14.015625 5.84375 -13.15625 4.859375 -11.796875 L 4.859375 -19.453125 L 2.46875 -19.1875 L 2.46875 0 L 4.859375 0 L 4.859375 -9.75 C 5.765625 -11.1875 6.84375 -12.140625 8.3125 -12.140625 C 9.625 -12.140625 10.5 -11.546875 10.5 -9.484375 L 10.5 0 L 12.890625 0 L 12.890625 -9.828125 C 12.890625 -12.40625 11.40625 -14.015625 8.921875 -14.015625 Z M 8.921875 -14.015625 "/>
</g>
<g id="glyph-3-15">
<path d="M 5.203125 0.3125 C 5.90625 0.3125 6.578125 0.125 7.09375 -0.15625 L 6.46875 -1.8125 C 6.21875 -1.71875 5.921875 -1.65625 5.59375 -1.65625 C 4.96875 -1.65625 4.734375 -2.03125 4.734375 -2.75 L 4.734375 -19.5 L 2.34375 -19.21875 L 2.34375 -2.703125 C 2.34375 -0.75 3.453125 0.3125 5.203125 0.3125 Z M 5.203125 0.3125 "/>
</g>
<g id="glyph-3-16">
<path d="M 8.46875 -2.265625 C 7.796875 -1.84375 7.25 -1.65625 6.65625 -1.65625 C 5.453125 -1.65625 5.015625 -2.3125 5.015625 -3.6875 L 5.015625 -11.859375 L 8.015625 -11.859375 L 8.265625 -13.703125 L 5.015625 -13.703125 L 5.015625 -17.078125 L 2.625 -16.796875 L 2.625 -13.703125 L 0.234375 -13.703125 L 0.234375 -11.859375 L 2.625 -11.859375 L 2.625 -3.59375 C 2.625 -1.046875 4 0.3125 6.3125 0.3125 C 7.484375 0.3125 8.46875 0 9.390625 -0.625 Z M 8.46875 -2.265625 "/>
</g>
<g id="glyph-3-17">
<path d="M 9.15625 -18.21875 C 5.125 -18.21875 1.4375 -15 1.4375 -8.96875 C 1.4375 -2.78125 4.3125 0.3125 8.765625 0.3125 C 11.28125 0.3125 13.15625 -0.3125 14.796875 -1.28125 L 14.796875 -9.9375 L 8.890625 -9.9375 L 9.171875 -7.9375 L 12.34375 -7.9375 L 12.34375 -2.546875 C 11.34375 -1.953125 10.140625 -1.71875 8.9375 -1.71875 C 5.796875 -1.71875 4.0625 -3.828125 4.0625 -8.96875 C 4.0625 -14.25 6.625 -16.203125 9.203125 -16.203125 C 10.8125 -16.203125 11.875 -15.75 13.125 -14.734375 L 14.59375 -16.25 C 13.046875 -17.53125 11.5625 -18.21875 9.15625 -18.21875 Z M 9.15625 -18.21875 "/>
</g>
<g id="glyph-3-18">
<path d="M 12.140625 0 L 14.734375 0 L 9.015625 -17.90625 L 5.90625 -17.90625 L 0.15625 0 L 2.65625 0 L 4 -4.5 L 10.796875 -4.5 Z M 4.609375 -6.5 L 7.40625 -15.859375 L 10.1875 -6.5 Z M 4.609375 -6.5 "/>
</g>
<g id="glyph-3-19">
<path d="M 17.140625 -17.90625 L 13.78125 -17.90625 L 10.1875 -4.890625 L 6.421875 -17.90625 L 3.09375 -17.90625 L 1.609375 0 L 3.953125 0 L 4.546875 -7.90625 C 4.765625 -10.53125 4.890625 -13.3125 4.890625 -15.421875 L 8.96875 -2.03125 L 11.28125 -2.03125 L 15.15625 -15.390625 C 15.1875 -13.90625 15.359375 -10.890625 15.59375 -8.09375 L 16.21875 0 L 18.609375 0 Z M 17.140625 -17.90625 "/>
</g>
<g id="glyph-3-20">
<path d="M 8.765625 -14.015625 C 7.203125 -14.015625 5.71875 -13.265625 4.703125 -11.859375 L 4.53125 -13.703125 L 2.46875 -13.703125 L 2.46875 5.53125 L 4.859375 5.25 L 4.859375 -1.25 C 5.75 -0.1875 6.96875 0.3125 8.453125 0.3125 C 11.984375 0.3125 13.828125 -2.703125 13.828125 -6.859375 C 13.828125 -11.1875 12.40625 -14.015625 8.765625 -14.015625 Z M 7.875 -1.640625 C 6.625 -1.640625 5.5625 -2.234375 4.859375 -3.296875 L 4.859375 -9.984375 C 5.59375 -11.078125 6.703125 -12.109375 8.15625 -12.109375 C 10.21875 -12.109375 11.265625 -10.421875 11.265625 -6.859375 C 11.265625 -3.28125 10.0625 -1.640625 7.875 -1.640625 Z M 7.875 -1.640625 "/>
</g>
</g>
<clipPath id="clip-0">
<path clip-rule="nonzero" d="M 40.738281 319 L 760.027344 319 L 760.027344 321 L 40.738281 321 Z M 40.738281 319 "/>
</clipPath>
<clipPath id="clip-1">
<path clip-rule="nonzero" d="M 40.738281 202 L 760.027344 202 L 760.027344 203 L 40.738281 203 Z M 40.738281 202 "/>
</clipPath>
<clipPath id="clip-2">
<path clip-rule="nonzero" d="M 40.738281 85 L 760.027344 85 L 760.027344 86 L 40.738281 86 Z M 40.738281 85 "/>
</clipPath>
<clipPath id="clip-3">
<path clip-rule="nonzero" d="M 679 37.949219 L 680 37.949219 L 680 391.265625 L 679 391.265625 Z M 679 37.949219 "/>
</clipPath>
<clipPath id="clip-4">
<path clip-rule="nonzero" d="M 481 37.949219 L 483 37.949219 L 483 391.265625 L 481 391.265625 Z M 481 37.949219 "/>
</clipPath>
<clipPath id="clip-5">
<path clip-rule="nonzero" d="M 284 37.949219 L 286 37.949219 L 286 391.265625 L 284 391.265625 Z M 284 37.949219 "/>
</clipPath>
<clipPath id="clip-6">
<path clip-rule="nonzero" d="M 87 37.949219 L 89 37.949219 L 89 391.265625 L 87 391.265625 Z M 87 37.949219 "/>
</clipPath>
<clipPath id="clip-7">
<path clip-rule="nonzero" d="M 40.738281 377 L 760.027344 377 L 760.027344 380 L 40.738281 380 Z M 40.738281 377 "/>
</clipPath>
<clipPath id="clip-8">
<path clip-rule="nonzero" d="M 40.738281 260 L 760.027344 260 L 760.027344 262 L 40.738281 262 Z M 40.738281 260 "/>
</clipPath>
<clipPath id="clip-9">
<path clip-rule="nonzero" d="M 40.738281 143 L 760.027344 143 L 760.027344 145 L 40.738281 145 Z M 40.738281 143 "/>
</clipPath>
<clipPath id="clip-10">
<path clip-rule="nonzero" d="M 580 37.949219 L 582 37.949219 L 582 391.265625 L 580 391.265625 Z M 580 37.949219 "/>
</clipPath>
<clipPath id="clip-11">
<path clip-rule="nonzero" d="M 383 37.949219 L 385 37.949219 L 385 391.265625 L 383 391.265625 Z M 383 37.949219 "/>
</clipPath>
<clipPath id="clip-12">
<path clip-rule="nonzero" d="M 185 37.949219 L 188 37.949219 L 188 391.265625 L 185 391.265625 Z M 185 37.949219 "/>
</clipPath>
</defs>
<rect x="-76.7" y="-43.2" width="920.4" height="518.4" fill="rgb(100%, 100%, 100%)" fill-opacity="1"/>
<rect x="-76.7" y="-43.2" width="920.4" height="518.4" fill="rgb(100%, 100%, 100%)" fill-opacity="1"/>
<g clip-path="url(#clip-0)">
<path fill="none" stroke-width="0.678986" stroke-linecap="butt" stroke-linejoin="round" stroke="rgb(92.156863%, 92.156863%, 92.156863%)" stroke-opacity="1" stroke-miterlimit="10" d="M 40.738281 319.804688 L 760.027344 319.804688 "/>
</g>
<g clip-path="url(#clip-1)">
<path fill="none" stroke-width="0.678986" stroke-linecap="butt" stroke-linejoin="round" stroke="rgb(92.156863%, 92.156863%, 92.156863%)" stroke-opacity="1" stroke-miterlimit="10" d="M 40.738281 202.652344 L 760.027344 202.652344 "/>
</g>
<g clip-path="url(#clip-2)">
<path fill="none" stroke-width="0.678986" stroke-linecap="butt" stroke-linejoin="round" stroke="rgb(92.156863%, 92.156863%, 92.156863%)" stroke-opacity="1" stroke-miterlimit="10" d="M 40.738281 85.496094 L 760.027344 85.496094 "/>
</g>
<g clip-path="url(#clip-3)">
<path fill="none" stroke-width="0.678986" stroke-linecap="butt" stroke-linejoin="round" stroke="rgb(92.156863%, 92.156863%, 92.156863%)" stroke-opacity="1" stroke-miterlimit="10" d="M 679.511719 391.261719 L 679.511719 37.949219 "/>
</g>
<g clip-path="url(#clip-4)">
<path fill="none" stroke-width="0.678986" stroke-linecap="butt" stroke-linejoin="round" stroke="rgb(92.156863%, 92.156863%, 92.156863%)" stroke-opacity="1" stroke-miterlimit="10" d="M 482.316406 391.261719 L 482.316406 37.949219 "/>
</g>
<g clip-path="url(#clip-5)">
<path fill="none" stroke-width="0.678986" stroke-linecap="butt" stroke-linejoin="round" stroke="rgb(92.156863%, 92.156863%, 92.156863%)" stroke-opacity="1" stroke-miterlimit="10" d="M 285.121094 391.261719 L 285.121094 37.949219 "/>
</g>
<g clip-path="url(#clip-6)">
<path fill="none" stroke-width="0.678986" stroke-linecap="butt" stroke-linejoin="round" stroke="rgb(92.156863%, 92.156863%, 92.156863%)" stroke-opacity="1" stroke-miterlimit="10" d="M 87.925781 391.261719 L 87.925781 37.949219 "/>
</g>
<g clip-path="url(#clip-7)">
<path fill="none" stroke-width="1.357972" stroke-linecap="butt" stroke-linejoin="round" stroke="rgb(92.156863%, 92.156863%, 92.156863%)" stroke-opacity="1" stroke-miterlimit="10" d="M 40.738281 378.382812 L 760.027344 378.382812 "/>
</g>
<g clip-path="url(#clip-8)">
<path fill="none" stroke-width="1.357972" stroke-linecap="butt" stroke-linejoin="round" stroke="rgb(92.156863%, 92.156863%, 92.156863%)" stroke-opacity="1" stroke-miterlimit="10" d="M 40.738281 261.230469 L 760.027344 261.230469 "/>
</g>
<g clip-path="url(#clip-9)">
<path fill="none" stroke-width="1.357972" stroke-linecap="butt" stroke-linejoin="round" stroke="rgb(92.156863%, 92.156863%, 92.156863%)" stroke-opacity="1" stroke-miterlimit="10" d="M 40.738281 144.074219 L 760.027344 144.074219 "/>
</g>
<g clip-path="url(#clip-10)">
<path fill="none" stroke-width="1.357972" stroke-linecap="butt" stroke-linejoin="round" stroke="rgb(92.156863%, 92.156863%, 92.156863%)" stroke-opacity="1" stroke-miterlimit="10" d="M 580.914062 391.261719 L 580.914062 37.949219 "/>
</g>
<g clip-path="url(#clip-11)">
<path fill="none" stroke-width="1.357972" stroke-linecap="butt" stroke-linejoin="round" stroke="rgb(92.156863%, 92.156863%, 92.156863%)" stroke-opacity="1" stroke-miterlimit="10" d="M 383.71875 391.261719 L 383.71875 37.949219 "/>
</g>
<g clip-path="url(#clip-12)">
<path fill="none" stroke-width="1.357972" stroke-linecap="butt" stroke-linejoin="round" stroke="rgb(92.156863%, 92.156863%, 92.156863%)" stroke-opacity="1" stroke-miterlimit="10" d="M 186.523438 391.261719 L 186.523438 37.949219 "/>
</g>
<path fill="none" stroke-width="3.200935" stroke-linecap="butt" stroke-linejoin="round" stroke="rgb(33.72549%, 70.588235%, 91.372549%)" stroke-opacity="1" stroke-miterlimit="10" d="M 73.433594 215.066406 L 76.71875 207.472656 L 80.003906 200.621094 L 83.289062 194.378906 L 86.574219 189.570312 L 89.863281 186.074219 L 93.148438 184.191406 L 96.433594 183.796875 L 99.71875 185.195312 L 103.003906 188.132812 L 106.292969 193.222656 L 109.578125 199.136719 L 112.863281 207.179688 L 116.148438 215.460938 L 119.433594 225.0625 L 122.722656 235.621094 L 126.007812 245.289062 L 129.292969 255.03125 L 132.578125 264.632812 L 135.863281 273.890625 L 139.152344 282.390625 L 142.4375 287.082031 L 145.722656 285.035156 L 149.007812 280.449219 L 152.292969 275.691406 L 155.582031 270.773438 L 158.867188 265.878906 L 162.152344 261.507812 L 165.4375 257.25 L 168.722656 253.460938 L 172.011719 250.492188 L 175.296875 248.316406 L 178.582031 247.289062 L 181.867188 247.082031 L 185.152344 248 L 188.441406 250.027344 L 191.726562 252.761719 L 195.011719 256.085938 L 198.296875 259.78125 L 201.582031 264.582031 L 204.871094 270.332031 L 208.15625 276.683594 L 211.441406 283.902344 L 214.726562 291.5625 L 218.011719 300.011719 L 221.296875 308.59375 L 224.585938 317.53125 L 227.871094 326.5 L 231.15625 335.113281 L 234.441406 343.203125 L 237.726562 350.832031 L 241.015625 354.984375 L 244.300781 354.707031 L 247.585938 347.300781 L 250.871094 339.472656 L 254.15625 330.886719 L 257.445312 321.308594 L 260.730469 311.105469 L 264.015625 300.308594 L 267.300781 289.328125 L 270.585938 278.269531 L 273.875 265.613281 L 277.160156 252.355469 L 280.445312 238.691406 L 283.730469 224.273438 L 287.015625 209.457031 L 290.304688 190.40625 L 293.589844 170.753906 L 296.875 150.9375 L 300.160156 131.753906 L 303.445312 114.644531 L 306.734375 99.621094 L 310.019531 88.902344 L 313.304688 82.433594 L 316.589844 80.714844 L 319.875 84.695312 L 323.164062 93.054688 L 326.449219 105.664062 L 329.734375 121.800781 L 333.019531 139.960938 L 336.304688 159.707031 L 339.59375 180.773438 L 342.878906 201.589844 L 346.164062 221.707031 L 349.449219 240.925781 L 352.734375 258.875 L 356.023438 275.335938 L 359.308594 290.222656 L 362.59375 303.8125 L 365.878906 308.507812 L 369.164062 294.894531 L 372.453125 279.449219 L 375.738281 262.207031 L 379.023438 243.21875 L 382.308594 221.691406 L 385.59375 198.0625 L 388.882812 173.3125 L 392.167969 148.238281 L 395.453125 124.234375 L 398.738281 102.214844 L 402.023438 83.347656 L 405.3125 68.675781 L 408.597656 59.171875 L 411.882812 54.1875 L 415.167969 54.007812 L 418.453125 59.484375 L 421.738281 70.480469 L 425.027344 85.804688 L 428.3125 105.207031 L 431.597656 127.195312 L 434.882812 149.867188 L 438.167969 172.628906 L 441.457031 194.753906 L 444.742188 215.421875 L 448.027344 234.371094 L 451.3125 251.855469 L 454.597656 267.261719 L 457.886719 281.226562 L 461.171875 293.464844 L 464.457031 303.515625 L 467.742188 312.367188 L 471.027344 320.246094 L 474.316406 327.171875 L 477.601562 333.238281 L 480.886719 338.621094 L 484.171875 343.394531 L 487.457031 347.695312 L 490.746094 351.570312 L 494.03125 355.015625 L 497.316406 358.140625 L 500.601562 357.496094 L 503.886719 354.039062 L 507.175781 350.132812 L 510.460938 345.578125 L 513.746094 340.355469 L 517.03125 334.324219 L 520.316406 326.886719 L 523.605469 317.925781 L 526.890625 307.972656 L 530.175781 296.875 L 533.460938 284.6875 L 536.746094 271.371094 L 540.035156 256.792969 L 543.320312 241.074219 L 546.605469 224.210938 L 549.890625 206.589844 L 553.175781 188.152344 L 556.464844 169.503906 L 559.75 150.871094 L 563.035156 133.171875 L 566.320312 116.785156 L 569.605469 102.332031 L 572.894531 90.3125 L 576.179688 81.808594 L 579.464844 76.898438 L 582.75 75.601562 L 586.035156 78.105469 L 589.324219 83.097656 L 592.609375 90.742188 L 595.894531 101.085938 L 599.179688 113.523438 L 602.464844 127.894531 L 605.753906 143.347656 L 609.039062 159.503906 L 612.324219 175.878906 L 615.609375 192.136719 L 618.894531 208.128906 L 622.179688 223.3125 L 625.46875 237.785156 L 628.753906 251.628906 L 632.039062 264.476562 L 635.324219 276.554688 L 638.609375 287.648438 L 641.898438 297.636719 L 645.183594 306.671875 L 648.46875 314.976562 L 651.753906 322.402344 L 655.039062 329.308594 L 658.328125 335.488281 L 661.613281 340.890625 L 664.898438 345.613281 L 668.183594 349.992188 L 671.46875 354.03125 L 674.757812 357.597656 L 678.042969 360.808594 L 681.328125 363.789062 L 684.613281 366.472656 L 687.898438 366.175781 L 691.1875 364.746094 L 694.472656 363.128906 L 697.757812 361.46875 L 701.042969 359.679688 L 704.328125 357.769531 L 707.617188 355.617188 L 710.902344 353.152344 L 714.1875 350.75 L 717.472656 348.523438 L 720.757812 346.253906 L 724.046875 344.105469 L 727.332031 341.964844 "/>
<path fill="none" stroke-width="3.200935" stroke-linecap="butt" stroke-linejoin="round" stroke="rgb(90.196078%, 62.352941%, 0%)" stroke-opacity="1" stroke-miterlimit="10" d="M 86.152344 262.996094 L 98.871094 132.882812 L 111.589844 245.753906 L 124.308594 303.542969 L 137.027344 329.339844 L 149.746094 319.835938 L 162.464844 268.75 L 175.183594 257.492188 L 192.144531 241.234375 L 209.101562 275.894531 L 242.921875 372.824219 L 259.878906 357.976562 L 276.839844 336.417969 L 293.796875 231.480469 L 310.757812 225.488281 L 323.96875 240.878906 L 337.082031 285.609375 L 350.292969 318.828125 L 363.507812 318.796875 L 376.71875 336.691406 L 389.832031 347.371094 L 403.042969 352.421875 L 416.257812 356.058594 L 425.226562 343.453125 L 434.003906 331.992188 L 442.679688 348.234375 L 451.355469 352.859375 L 460.132812 352.558594 L 512.683594 375.203125 L 517.023438 358.726562 L 528.953125 357.792969 L 540.785156 315.097656 L 552.714844 284.433594 L 564.644531 280.230469 L 576.574219 285.292969 L 588.40625 298.222656 L 600.335938 351.898438 L 611.875 361.039062 L 623.410156 345.789062 L 634.945312 349.5 L 646.480469 340.855469 L 658.015625 341.652344 L 669.652344 362.796875 L 681.1875 371.371094 L 692.722656 366.859375 L 704.257812 358.945312 L 715.796875 356.902344 L 727.332031 358.007812 "/>
<g fill="rgb(30.196078%, 30.196078%, 30.196078%)" fill-opacity="1">
<use xlink:href="#glyph-0-1" x="28.460938" y="381.854492"/>
</g>
<g fill="rgb(30.196078%, 30.196078%, 30.196078%)" fill-opacity="1">
<use xlink:href="#glyph-0-2" x="28.460938" y="264.702148"/>
</g>
<g fill="rgb(30.196078%, 30.196078%, 30.196078%)" fill-opacity="1">
<use xlink:href="#glyph-0-3" x="23.460938" y="147.545898"/>
<use xlink:href="#glyph-0-1" x="28.460938" y="147.545898"/>
</g>
<g fill="rgb(30.196078%, 30.196078%, 30.196078%)" fill-opacity="1">
<use xlink:href="#glyph-0-4" x="569.414062" y="405.010742"/>
<use xlink:href="#glyph-0-1" x="574.414062" y="405.010742"/>
<use xlink:href="#glyph-0-1" x="580.414062" y="405.010742"/>
<use xlink:href="#glyph-0-1" x="586.414062" y="405.010742"/>
</g>
<g fill="rgb(30.196078%, 30.196078%, 30.196078%)" fill-opacity="1">
<use xlink:href="#glyph-0-5" x="371.71875" y="405.010742"/>
<use xlink:href="#glyph-0-1" x="377.71875" y="405.010742"/>
<use xlink:href="#glyph-0-1" x="383.71875" y="405.010742"/>
<use xlink:href="#glyph-0-1" x="389.71875" y="405.010742"/>
</g>
<g fill="rgb(30.196078%, 30.196078%, 30.196078%)" fill-opacity="1">
<use xlink:href="#glyph-0-3" x="172.523438" y="405.010742"/>
<use xlink:href="#glyph-0-3" x="177.523438" y="405.010742"/>
<use xlink:href="#glyph-0-1" x="182.523438" y="405.010742"/>
<use xlink:href="#glyph-0-1" x="188.523438" y="405.010742"/>
<use xlink:href="#glyph-0-1" x="194.523438" y="405.010742"/>
</g>
<g fill="rgb(0%, 0%, 0%)" fill-opacity="1">
<use xlink:href="#glyph-1-1" x="353.882812" y="421.117188"/>
<use xlink:href="#glyph-1-2" x="361.882812" y="421.117188"/>
<use xlink:href="#glyph-1-3" x="368.882812" y="421.117188"/>
<use xlink:href="#glyph-1-4" x="376.882812" y="421.117188"/>
<use xlink:href="#glyph-1-5" x="380.882812" y="421.117188"/>
<use xlink:href="#glyph-1-6" x="385.882812" y="421.117188"/>
<use xlink:href="#glyph-1-3" x="392.882812" y="421.117188"/>
<use xlink:href="#glyph-1-7" x="400.882812" y="421.117188"/>
<use xlink:href="#glyph-1-8" x="408.882812" y="421.117188"/>
<use xlink:href="#glyph-1-9" x="413.882812" y="421.117188"/>
<use xlink:href="#glyph-1-4" x="420.882812" y="421.117188"/>
<use xlink:href="#glyph-1-10" x="424.882812" y="421.117188"/>
<use xlink:href="#glyph-1-11" x="433.882812" y="421.117188"/>
<use xlink:href="#glyph-1-12" x="441.882812" y="421.117188"/>
</g>
<g fill="rgb(0%, 0%, 0%)" fill-opacity="1">
<use xlink:href="#glyph-2-1" x="16.0625" y="310.105469"/>
<use xlink:href="#glyph-2-2" x="16.0625" y="302.105469"/>
<use xlink:href="#glyph-2-3" x="16.0625" y="294.105469"/>
<use xlink:href="#glyph-2-4" x="16.0625" y="289.105469"/>
<use xlink:href="#glyph-2-5" x="16.0625" y="281.105469"/>
<use xlink:href="#glyph-2-6" x="16.0625" y="277.105469"/>
<use xlink:href="#glyph-2-7" x="16.0625" y="269.105469"/>
<use xlink:href="#glyph-2-5" x="16.0625" y="264.105469"/>
<use xlink:href="#glyph-2-8" x="16.0625" y="260.105469"/>
<use xlink:href="#glyph-2-6" x="16.0625" y="253.105469"/>
<use xlink:href="#glyph-2-9" x="16.0625" y="245.105469"/>
<use xlink:href="#glyph-2-10" x="16.0625" y="233.105469"/>
<use xlink:href="#glyph-2-6" x="16.0625" y="225.105469"/>
<use xlink:href="#glyph-2-11" x="16.0625" y="217.105469"/>
<use xlink:href="#glyph-2-12" x="16.0625" y="210.105469"/>
<use xlink:href="#glyph-2-3" x="16.0625" y="206.105469"/>
<use xlink:href="#glyph-2-12" x="16.0625" y="201.105469"/>
<use xlink:href="#glyph-2-6" x="16.0625" y="197.105469"/>
<use xlink:href="#glyph-2-13" x="16.0625" y="189.105469"/>
<use xlink:href="#glyph-2-2" x="16.0625" y="181.105469"/>
<use xlink:href="#glyph-2-14" x="16.0625" y="173.105469"/>
<use xlink:href="#glyph-2-5" x="16.0625" y="169.105469"/>
<use xlink:href="#glyph-2-8" x="16.0625" y="165.105469"/>
<use xlink:href="#glyph-2-15" x="16.0625" y="158.105469"/>
<use xlink:href="#glyph-2-2" x="16.0625" y="150.105469"/>
<use xlink:href="#glyph-2-13" x="16.0625" y="142.105469"/>
<use xlink:href="#glyph-2-16" x="16.0625" y="134.105469"/>
<use xlink:href="#glyph-2-4" x="16.0625" y="127.105469"/>
</g>
<g fill="rgb(0%, 0%, 0%)" fill-opacity="1">
<use xlink:href="#glyph-3-1" x="6.972656" y="24.282227"/>
<use xlink:href="#glyph-3-2" x="21.972656" y="24.282227"/>
<use xlink:href="#glyph-3-3" x="36.972656" y="24.282227"/>
</g>
<g fill="rgb(0%, 0%, 0%)" fill-opacity="1">
<use xlink:href="#glyph-3-4" x="58.972656" y="24.282227"/>
<use xlink:href="#glyph-3-5" x="73.972656" y="24.282227"/>
<use xlink:href="#glyph-3-6" x="87.972656" y="24.282227"/>
<use xlink:href="#glyph-3-7" x="99.972656" y="24.282227"/>
<use xlink:href="#glyph-3-8" x="113.972656" y="24.282227"/>
</g>
<g fill="rgb(0%, 0%, 0%)" fill-opacity="1">
<use xlink:href="#glyph-3-2" x="136.972656" y="24.282227"/>
<use xlink:href="#glyph-3-9" x="151.972656" y="24.282227"/>
</g>
<g fill="rgb(33.72549%, 70.588235%, 91.372549%)" fill-opacity="1">
<use xlink:href="#glyph-3-10" x="173.972656" y="24.282227"/>
<use xlink:href="#glyph-3-11" x="190.972656" y="24.282227"/>
<use xlink:href="#glyph-3-12" x="197.972656" y="24.282227"/>
<use xlink:href="#glyph-3-11" x="207.972656" y="24.282227"/>
<use xlink:href="#glyph-3-13" x="214.972656" y="24.282227"/>
<use xlink:href="#glyph-3-14" x="226.972656" y="24.282227"/>
<use xlink:href="#glyph-3-15" x="241.972656" y="24.282227"/>
<use xlink:href="#glyph-3-7" x="248.972656" y="24.282227"/>
<use xlink:href="#glyph-3-16" x="262.972656" y="24.282227"/>
</g>
<g fill="rgb(33.72549%, 70.588235%, 91.372549%)" fill-opacity="1">
<use xlink:href="#glyph-3-17" x="278.972656" y="24.282227"/>
<use xlink:href="#glyph-3-18" x="294.972656" y="24.282227"/>
<use xlink:href="#glyph-3-19" x="309.972656" y="24.282227"/>
</g>
<g fill="rgb(0%, 0%, 0%)" fill-opacity="1">
<use xlink:href="#glyph-3-5" x="337.972656" y="24.282227"/>
<use xlink:href="#glyph-3-9" x="351.972656" y="24.282227"/>
<use xlink:href="#glyph-3-8" x="366.972656" y="24.282227"/>
</g>
<g fill="rgb(90.196078%, 62.352941%, 0%)" fill-opacity="1">
<use xlink:href="#glyph-3-1" x="389.972656" y="24.282227"/>
<use xlink:href="#glyph-3-1" x="405.972656" y="24.282227"/>
<use xlink:href="#glyph-3-5" x="420.972656" y="24.282227"/>
<use xlink:href="#glyph-3-16" x="434.972656" y="24.282227"/>
<use xlink:href="#glyph-3-7" x="443.972656" y="24.282227"/>
<use xlink:href="#glyph-3-20" x="457.972656" y="24.282227"/>
<use xlink:href="#glyph-3-2" x="472.972656" y="24.282227"/>
<use xlink:href="#glyph-3-15" x="487.972656" y="24.282227"/>
</g>
</svg>
